# xmcd
#
# Track frame offsets: 
#        150
#        20365
#        37095
#        52588
#        70214
#        91064
#        110051
#        126222
#        143310
#        164270
#
# Disc length: 2399 seconds
#
# Revision: 1
# Processed by: cddbd v1.5.2PL0 Copyright (c) Steve Scherf et al.
# Submitted via: ExactAudioCopy v0.99pb4
#
DISCID=79095d0a
DTITLE=Александр Новиков - Шансоньетка
DYEAR=2003
DGENRE=Chanson
TTITLE0=Шансоньетка
TTITLE1=Уличная красотка
TTITLE2=Безработный музыкант
TTITLE3=Девочка-иголка
TTITLE4=Женщина ушла
TTITLE5=Белый голубь
TTITLE6=Содержанка
TTITLE7=Золотая Рыба
TTITLE8=Она-не моя...
TTITLE9=Городской роман
EXTD=
EXTT0=
EXTT1=
EXTT2=
EXTT3=
EXTT4=
EXTT5=
EXTT6=
EXTT7=
EXTT8=
EXTT9=
PLAYORDER=
